<?xml version="1.0" encoding="UTF-8"?>
<!DOCTYPE svg PUBLIC "-//W3C//DTD SVG 1.1//EN" "http://www.w3.org/Graphics/SVG/1.1/DTD/svg11.dtd">
<svg xmlns="http://www.w3.org/2000/svg" version="1.1" width="468px" height="500px" style="shape-rendering:geometricPrecision; text-rendering:geometricPrecision; image-rendering:optimizeQuality; fill-rule:evenodd; clip-rule:evenodd" xmlns:xlink="http://www.w3.org/1999/xlink">
<g><path style="opacity:1" fill="#d63a1e" d="M 211.5,-0.5 C 227.5,-0.5 243.5,-0.5 259.5,-0.5C 264.772,0.692275 270.105,2.02561 275.5,3.5C 270.695,4.48717 265.695,4.82051 260.5,4.5C 258.833,4.5 257.167,4.5 255.5,4.5C 245.008,3.34121 234.341,3.17455 223.5,4C 220.048,4.88466 216.714,5.718 213.5,6.5C 211.833,6.5 210.167,6.5 208.5,6.5C 204.688,5.67618 200.688,5.17618 196.5,5C 198.315,4.24316 199.981,3.40982 201.5,2.5C 204.78,1.28794 208.113,0.287939 211.5,-0.5 Z"/></g>
<g><path style="opacity:0.993" fill="#e1644c" d="M 255.5,4.5 C 241.454,4.3352 227.454,5.00187 213.5,6.5C 216.714,5.718 220.048,4.88466 223.5,4C 234.341,3.17455 245.008,3.34121 255.5,4.5 Z"/></g>
<g><path style="opacity:0.445" fill="#e47560" d="M 275.5,3.5 C 276.756,3.46141 277.756,3.96141 278.5,5C 272.319,5.81921 266.319,5.65255 260.5,4.5C 265.695,4.82051 270.695,4.48717 275.5,3.5 Z"/></g>
<g><path style="opacity:0.947" fill="#e2654c" d="M 201.5,2.5 C 199.981,3.40982 198.315,4.24316 196.5,5C 200.688,5.17618 204.688,5.67618 208.5,6.5C 202.495,7.00166 196.495,7.16832 190.5,7C 193.548,4.0382 197.215,2.5382 201.5,2.5 Z"/></g>
<g><path style="opacity:1" fill="#d63a1e" d="M 353.5,46.5 C 353.5,47.1667 353.833,47.5 354.5,47.5C 354.5,47.8333 354.5,48.1667 354.5,48.5C 355.609,49.29 356.942,49.79 358.5,50C 363.417,55.7409 368.417,61.2409 373.5,66.5C 373.833,66.5 374.167,66.5 374.5,66.5C 374.5,67.1667 374.833,67.5 375.5,67.5C 375.833,68.8333 376.167,68.8333 376.5,67.5C 375.948,65.6693 375.948,64.0026 376.5,62.5C 378.515,64.576 380.515,66.576 382.5,68.5C 396.536,87.9082 406.869,109.242 413.5,132.5C 413.5,133.167 413.833,133.5 414.5,133.5C 414.5,134.5 414.5,135.5 414.5,136.5C 414.263,137.791 414.596,138.791 415.5,139.5C 416.338,139.158 416.672,138.492 416.5,137.5C 416.343,136.127 416.51,134.793 417,133.5C 417.383,134.056 417.883,134.389 418.5,134.5C 424.488,147.775 428.322,161.775 430,176.5C 431.635,190.851 431.801,205.184 430.5,219.5C 429.776,222.083 428.943,224.749 428,227.5C 427.49,212.898 426.656,212.898 425.5,227.5C 425.5,228.5 425.5,229.5 425.5,230.5C 424.883,230.611 424.383,230.944 424,231.5C 423.004,235.816 422.17,240.149 421.5,244.5C 419.595,248.216 418.261,252.216 417.5,256.5C 413.353,266.801 409.186,277.135 405,287.5C 400.974,294.905 396.474,301.905 391.5,308.5C 383.471,316.527 375.805,324.861 368.5,333.5C 354.971,346.93 339.971,358.43 323.5,368C 319.649,368.754 315.816,369.588 312,370.5C 310.893,370.415 309.893,370.081 309,369.5C 305.341,371.387 301.508,372.887 297.5,374C 285.624,377.066 273.624,379.733 261.5,382C 249.866,383.232 238.2,383.732 226.5,383.5C 220.48,381.331 214.147,380.331 207.5,380.5C 200.996,379.933 194.663,378.599 188.5,376.5C 187.097,375.069 185.431,373.902 183.5,373C 186.146,372.503 188.813,372.336 191.5,372.5C 200.769,371.882 209.769,373.049 218.5,376C 224.491,376.499 230.491,376.666 236.5,376.5C 240.89,376.035 244.557,374.368 247.5,371.5C 256.671,370.416 265.838,370.416 275,371.5C 289.151,370.839 301.984,366.506 313.5,358.5C 314.404,357.791 314.737,356.791 314.5,355.5C 313.127,355.657 311.793,355.49 310.5,355C 311.416,354.722 312.082,354.222 312.5,353.5C 313.167,353.5 313.833,353.5 314.5,353.5C 316.492,353.328 318.158,353.995 319.5,355.5C 321.672,353.828 323.672,352.161 325.5,350.5C 325.833,350.5 326.167,350.5 326.5,350.5C 327.872,349.488 329.205,348.488 330.5,347.5C 330.833,347.5 331.167,347.5 331.5,347.5C 333.455,347.201 334.789,346.201 335.5,344.5C 335.833,344.5 336.167,344.5 336.5,344.5C 339.545,343.611 342.211,342.111 344.5,340C 342.285,339.83 340.285,339.163 338.5,338C 340.041,336.629 341.375,335.129 342.5,333.5C 346.926,331.452 351.26,329.118 355.5,326.5C 358.394,325.118 360.894,323.118 363,320.5C 362.828,323.351 361.661,325.851 359.5,328C 360.167,328.667 360.833,328.667 361.5,328C 369.049,318.624 376.382,309.124 383.5,299.5C 385.023,296.365 385.69,293.032 385.5,289.5C 388.285,289.067 390.619,287.734 392.5,285.5C 392.062,284.494 391.396,284.494 390.5,285.5C 389.353,283.235 389.186,280.902 390,278.5C 400.806,257.802 408.639,235.969 413.5,213C 412.588,208.554 412.255,204.054 412.5,199.5C 412.649,198.448 412.483,197.448 412,196.5C 411.583,197.756 410.75,198.423 409.5,198.5C 409.129,185.77 408.129,173.103 406.5,160.5C 405.679,153.707 403.679,147.374 400.5,141.5C 396.825,132.486 392.325,123.819 387,115.5C 386.001,119.237 384.668,119.237 383,115.5C 378.08,108.327 374.247,100.66 371.5,92.5C 370.978,89.4318 370.145,86.4318 369,83.5C 368.583,82.244 367.75,81.5774 366.5,81.5C 360.667,73.5007 353.667,66.6674 345.5,61C 333.296,52.7307 320.629,45.2307 307.5,38.5C 307.167,38.6667 306.833,38.8333 306.5,39C 307.5,39.8333 308.5,40.6667 309.5,41.5C 301.958,42.5408 295.625,40.2074 290.5,34.5C 291.729,33.7189 293.062,33.2189 294.5,33C 292.283,31.7246 289.949,30.7246 287.5,30C 274.154,30.1143 260.82,30.4477 247.5,31C 245.956,30.7104 244.623,30.0437 243.5,29C 248.081,27.7247 252.748,26.7247 257.5,26C 251.189,24.0329 244.856,24.1996 238.5,26.5C 233.385,26.5839 228.718,27.5839 224.5,29.5C 220.818,29.3347 217.152,29.5014 213.5,30C 203.117,32.0131 192.784,34.1798 182.5,36.5C 180.901,36.2322 179.568,36.5655 178.5,37.5C 177.167,37.5 175.833,37.5 174.5,37.5C 174.649,36.448 174.483,35.448 174,34.5C 163.005,38.9131 152.171,43.7464 141.5,49C 138,51.8333 134.5,54.6667 131,57.5C 130.689,61.7775 129.523,65.7775 127.5,69.5C 126.833,69.5 126.5,69.8333 126.5,70.5C 125.833,70.5 125.5,70.8333 125.5,71.5C 124.833,71.5 124.5,71.8333 124.5,72.5C 118.577,74.7951 112.91,77.6284 107.5,81C 100.818,87.5481 94.4847,94.3814 88.5,101.5C 87.7492,100.624 87.2492,99.624 87,98.5C 85.4033,101.219 83.2366,103.386 80.5,105C 79.5509,105.617 78.7175,105.451 78,104.5C 76.0227,107.312 73.856,109.978 71.5,112.5C 70.3691,110.926 70.2025,109.259 71,107.5C 76.5181,98.0528 81.8514,88.7195 87,79.5C 82.2511,83.5779 78.2511,88.2446 75,93.5C 69.1394,103.888 63.8061,114.554 59,125.5C 58.059,127.061 56.8924,128.395 55.5,129.5C 54.1195,129 53.4528,128 53.5,126.5C 59.409,106.795 68.909,89.1286 82,73.5C 91.5542,65.5102 100.721,57.0102 109.5,48C 124.426,36.5373 140.76,27.704 158.5,21.5C 159.791,21.7373 160.791,21.404 161.5,20.5C 162.791,20.7373 163.791,20.404 164.5,19.5C 165.791,19.7373 166.791,19.404 167.5,18.5C 175.332,16.5879 182.999,14.0879 190.5,11C 197.492,10.5004 204.492,10.3337 211.5,10.5C 215.298,11.4834 219.298,11.8168 223.5,11.5C 223.5,10.5 223.5,9.5 223.5,8.5C 225.415,8.78448 227.081,8.45115 228.5,7.5C 263.594,4.68809 296.594,11.8548 327.5,29C 336.023,35.0912 344.689,40.9245 353.5,46.5 Z M 178.5,37.5 C 179.791,37.2627 180.791,37.596 181.5,38.5C 177.752,38.6944 175.085,40.361 173.5,43.5C 156.921,50.1045 141.588,58.7712 127.5,69.5C 129.523,65.7775 130.689,61.7775 131,57.5C 134.5,54.6667 138,51.8333 141.5,49C 152.171,43.7464 163.005,38.9131 174,34.5C 174.483,35.448 174.649,36.448 174.5,37.5C 175.833,37.5 177.167,37.5 178.5,37.5 Z M 372.5,63.5 C 373.906,63.9731 374.573,64.9731 374.5,66.5C 374.167,66.5 373.833,66.5 373.5,66.5C 372.89,65.609 372.557,64.609 372.5,63.5 Z M 398.5,118.5 C 395.53,114.005 392.697,109.338 390,104.5C 388.168,101.672 387.168,98.6722 387,95.5C 391.904,102.642 395.738,110.309 398.5,118.5 Z M 427.5,198.5 C 426.833,198.167 426.167,197.833 425.5,197.5C 425.119,190.822 424.952,184.156 425,177.5C 426.164,184.441 426.998,191.441 427.5,198.5 Z M 400.5,270.5 C 399.873,274.42 398.207,277.753 395.5,280.5C 396.659,276.849 398.326,273.515 400.5,270.5 Z M 395.5,280.5 C 395.573,282.027 394.906,283.027 393.5,283.5C 393.427,281.973 394.094,280.973 395.5,280.5 Z"/></g>
<g><path style="opacity:0.902" fill="#e36b54" d="M 228.5,7.5 C 227.081,8.45115 225.415,8.78448 223.5,8.5C 223.5,9.5 223.5,10.5 223.5,11.5C 219.298,11.8168 215.298,11.4834 211.5,10.5C 217.529,10.4903 223.195,9.49033 228.5,7.5 Z"/></g>
<g><path style="opacity:0.702" fill="#e26851" d="M 289.5,7.5 C 294.829,8.59947 300.162,9.76613 305.5,11C 308.592,11.9338 308.925,13.1004 306.5,14.5C 301.138,13.1014 295.804,11.6014 290.5,10C 289.748,9.32924 289.414,8.4959 289.5,7.5 Z"/></g>
<g><path style="opacity:1" fill="#db4c31" d="M 167.5,18.5 C 166.209,18.2627 165.209,18.596 164.5,19.5C 163.209,19.2627 162.209,19.596 161.5,20.5C 160.5,20.5 159.5,20.5 158.5,20.5C 155.612,21.0102 153.279,20.3435 151.5,18.5C 160.29,13.8456 169.624,11.3456 179.5,11C 178.953,11.9246 178.287,12.7579 177.5,13.5C 174.063,15.1862 170.729,16.8528 167.5,18.5 Z"/></g>
<g><path style="opacity:0.396" fill="#ef9988" d="M 151.5,18.5 C 153.279,20.3435 155.612,21.0102 158.5,20.5C 158.5,20.8333 158.5,21.1667 158.5,21.5C 155.833,21.5 153.167,21.5 150.5,21.5C 150.263,20.209 150.596,19.209 151.5,18.5 Z"/></g>
<g><path style="opacity:0.661" fill="#e7755e" d="M 238.5,26.5 C 234.138,28.3438 229.471,29.3438 224.5,29.5C 228.718,27.5839 233.385,26.5839 238.5,26.5 Z"/></g>
<g><path style="opacity:1" fill="#d42f13" d="M 247.5,32.5 C 255.812,34.3225 264.479,35.6558 273.5,36.5C 273.833,36.5 274.167,36.5 274.5,36.5C 274.611,37.1174 274.944,37.6174 275.5,38C 280.484,39.3298 285.484,40.4964 290.5,41.5C 344.25,60.9165 379.583,97.9165 396.5,152.5C 398.393,165.044 400.727,177.377 403.5,189.5C 404.485,199.666 404.152,209.666 402.5,219.5C 401.105,223.591 400.438,227.924 400.5,232.5C 400.126,237.325 399.126,241.992 397.5,246.5C 396.883,246.611 396.383,246.944 396,247.5C 394.85,251.112 394.017,254.778 393.5,258.5C 388.827,271.512 382.827,283.845 375.5,295.5C 364.749,290.283 354.749,283.783 345.5,276C 334.295,265.961 323.628,255.461 313.5,244.5C 321.187,235.981 328.687,227.314 336,218.5C 342.67,210.48 347.67,201.48 351,191.5C 352.482,177.32 346.316,172.153 332.5,176C 323.147,179.521 316.147,185.688 311.5,194.5C 314.537,195.868 315.87,198.202 315.5,201.5C 314.905,206.451 313.405,211.118 311,215.5C 301.883,228.152 291.049,239.152 278.5,248.5C 274.584,186.66 281.418,125.993 299,66.5C 300.489,62.1666 298.989,59.8333 294.5,59.5C 280.724,63.3013 268.891,70.3013 259,80.5C 256.402,86.2241 254.735,92.2241 254,98.5C 252.063,110.431 250.896,122.431 250.5,134.5C 249.095,144.301 248.428,154.301 248.5,164.5C 247.074,216.158 248.241,267.825 252,319.5C 255.419,322.848 259.252,323.348 263.5,321C 270.583,318.882 275.416,314.382 278,307.5C 277.446,292.832 277.613,278.165 278.5,263.5C 302.339,284.362 326.673,304.362 351.5,323.5C 347.808,326.862 344.141,330.195 340.5,333.5C 339.833,333.5 339.5,333.833 339.5,334.5C 332.669,339.145 325.669,343.645 318.5,348C 310.819,352.343 302.819,355.843 294.5,358.5C 288.88,360.094 283.213,361.594 277.5,363C 276.944,363.383 276.611,363.883 276.5,364.5C 273.321,365.793 269.988,366.46 266.5,366.5C 260.474,366.359 254.474,366.692 248.5,367.5C 246.667,367.585 245.334,368.252 244.5,369.5C 238.167,369.5 231.833,369.5 225.5,369.5C 223.952,368.206 221.952,367.539 219.5,367.5C 212.173,366.917 204.839,366.417 197.5,366C 198.167,365.667 198.833,365.333 199.5,365C 195.586,363.717 191.586,362.884 187.5,362.5C 185.883,361.962 184.216,361.629 182.5,361.5C 182.167,361.5 181.833,361.5 181.5,361.5C 181.5,360.833 181.167,360.5 180.5,360.5C 177.764,357.968 174.43,356.635 170.5,356.5C 169.432,355.566 168.099,355.232 166.5,355.5C 162.653,352.407 158.32,350.074 153.5,348.5C 146.486,343.516 139.153,338.85 131.5,334.5C 130.833,333.167 129.833,332.167 128.5,331.5C 128.167,331.5 127.833,331.5 127.5,331.5C 127.5,330.833 127.167,330.5 126.5,330.5C 126.5,329.833 126.167,329.5 125.5,329.5C 125.5,328.833 125.167,328.5 124.5,328.5C 124.167,328.5 123.833,328.5 123.5,328.5C 123.5,327.833 123.167,327.5 122.5,327.5C 122.5,326.833 122.167,326.5 121.5,326.5C 121.5,325.833 121.167,325.5 120.5,325.5C 118.5,322.833 116.167,320.5 113.5,318.5C 113.5,317.833 113.167,317.5 112.5,317.5C 112.5,316.833 112.167,316.5 111.5,316.5C 111.5,315.833 111.167,315.5 110.5,315.5C 110.5,314.833 110.167,314.5 109.5,314.5C 109.5,314.167 109.5,313.833 109.5,313.5C 108.833,312.167 107.833,311.167 106.5,310.5C 106.5,309.833 106.167,309.5 105.5,309.5C 105.5,309.167 105.5,308.833 105.5,308.5C 101.044,302.41 96.7106,296.41 92.5,290.5C 92.1667,290.5 91.8333,290.5 91.5,290.5C 91.6716,289.508 91.3382,288.842 90.5,288.5C 90.5,288.167 90.5,287.833 90.5,287.5C 90.5,286.833 90.1667,286.5 89.5,286.5C 89.5,285.833 89.1667,285.5 88.5,285.5C 88.5,285.167 88.5,284.833 88.5,284.5C 88.5,283.833 88.1667,283.5 87.5,283.5C 87.5,282.833 87.1667,282.5 86.5,282.5C 86.6716,281.508 86.3382,280.842 85.5,280.5C 85.6716,279.508 85.3382,278.842 84.5,278.5C 84.6716,277.508 84.3382,276.842 83.5,276.5C 83.6716,275.508 83.3382,274.842 82.5,274.5C 82.6716,273.508 82.3382,272.842 81.5,272.5C 81.6716,271.508 81.3382,270.842 80.5,270.5C 80.6716,269.508 80.3382,268.842 79.5,268.5C 79.5979,266.447 78.9313,264.78 77.5,263.5C 77.5,262.5 77.5,261.5 77.5,260.5C 76.4017,255.205 74.735,250.205 72.5,245.5C 67.4324,229.339 65.4324,212.672 66.5,195.5C 68.0363,186.602 69.0363,177.602 69.5,168.5C 69.5,168.167 69.5,167.833 69.5,167.5C 71.0395,165.162 71.7062,162.495 71.5,159.5C 74.0774,147.092 78.4108,135.425 84.5,124.5C 86.0568,123.534 87.3901,122.2 88.5,120.5C 91.6965,114.888 94.6965,109.221 97.5,103.5C 104.67,91.6571 113.67,81.3238 124.5,72.5C 125.167,72.5 125.5,72.1667 125.5,71.5C 126.167,71.5 126.5,71.1667 126.5,70.5C 127.167,70.5 127.5,70.1667 127.5,69.5C 141.588,58.7712 156.921,50.1045 173.5,43.5C 174.833,43.5 176.167,43.5 177.5,43.5C 177.38,40.7952 178.38,40.1285 180.5,41.5C 182.336,40.9724 184.003,40.3058 185.5,39.5C 205.598,32.7321 226.264,30.3987 247.5,32.5 Z"/></g>
<g><path style="opacity:0.914" fill="#df5c42" d="M 247.5,32.5 C 256.491,32.5556 265.158,33.8889 273.5,36.5C 264.479,35.6558 255.812,34.3225 247.5,32.5 Z"/></g>
<g><path style="opacity:0.051" fill="#f2b3a8" d="M 178.5,37.5 C 179.568,36.5655 180.901,36.2322 182.5,36.5C 183.551,37.2223 184.218,38.2223 184.5,39.5C 183.391,39.4431 182.391,39.1098 181.5,38.5C 180.791,37.596 179.791,37.2627 178.5,37.5 Z"/></g>
<g><path style="opacity:0.525" fill="#df6048" d="M 274.5,36.5 C 280.172,37.3926 285.506,39.0592 290.5,41.5C 285.484,40.4964 280.484,39.3298 275.5,38C 274.944,37.6174 274.611,37.1174 274.5,36.5 Z"/></g>
<g><path style="opacity:0.884" fill="#df6048" d="M 181.5,38.5 C 182.391,39.1098 183.391,39.4431 184.5,39.5C 184.833,39.5 185.167,39.5 185.5,39.5C 184.003,40.3058 182.336,40.9724 180.5,41.5C 178.38,40.1285 177.38,40.7952 177.5,43.5C 176.167,43.5 174.833,43.5 173.5,43.5C 175.085,40.361 177.752,38.6944 181.5,38.5 Z"/></g>
<g><path style="opacity:0.325" fill="#ed9d8f" d="M 357.5,47.5 C 356.609,48.1098 355.609,48.4431 354.5,48.5C 354.5,48.1667 354.5,47.8333 354.5,47.5C 353.833,47.5 353.5,47.1667 353.5,46.5C 354.908,44.1403 356.241,44.4736 357.5,47.5 Z"/></g>
<g><path style="opacity:0.702" fill="#e06047" d="M 357.5,47.5 C 360.167,49.8333 362.833,52.1667 365.5,54.5C 365.5,55.1667 365.833,55.5 366.5,55.5C 366.738,57.4044 367.738,58.7377 369.5,59.5C 369.738,61.4044 370.738,62.7377 372.5,63.5C 372.557,64.609 372.89,65.609 373.5,66.5C 368.417,61.2409 363.417,55.7409 358.5,50C 356.942,49.79 355.609,49.29 354.5,48.5C 355.609,48.4431 356.609,48.1098 357.5,47.5 Z"/></g>
<g><path style="opacity:0.999" fill="#fefbfb" d="M 375.5,295.5 C 378.167,296.833 380.833,298.167 383.5,299.5C 376.382,309.124 369.049,318.624 361.5,328C 360.833,328.667 360.167,328.667 359.5,328C 361.661,325.851 362.828,323.351 363,320.5C 360.894,323.118 358.394,325.118 355.5,326.5C 354.564,325.026 353.23,324.026 351.5,323.5C 326.673,304.362 302.339,284.362 278.5,263.5C 277.613,278.165 277.446,292.832 278,307.5C 275.416,314.382 270.583,318.882 263.5,321C 259.252,323.348 255.419,322.848 252,319.5C 248.241,267.825 247.074,216.158 248.5,164.5C 249.905,154.699 250.572,144.699 250.5,134.5C 250.896,122.431 252.063,110.431 254,98.5C 254.735,92.2241 256.402,86.2241 259,80.5C 268.891,70.3013 280.724,63.3013 294.5,59.5C 298.989,59.8333 300.489,62.1666 299,66.5C 281.418,125.993 274.584,186.66 278.5,248.5C 291.049,239.152 301.883,228.152 311,215.5C 313.405,211.118 314.905,206.451 315.5,201.5C 315.87,198.202 314.537,195.868 311.5,194.5C 316.147,185.688 323.147,179.521 332.5,176C 346.316,172.153 352.482,177.32 351,191.5C 347.67,201.48 342.67,210.48 336,218.5C 328.687,227.314 321.187,235.981 313.5,244.5C 323.628,255.461 334.295,265.961 345.5,276C 354.749,283.783 364.749,290.283 375.5,295.5 Z"/></g>
<g><path style="opacity:0.984" fill="#e15f45" d="M 382.5,68.5 C 380.515,66.576 378.515,64.576 376.5,62.5C 375.948,64.0026 375.948,65.6693 376.5,67.5C 376.167,67.5 375.833,67.5 375.5,67.5C 374.833,67.5 374.5,67.1667 374.5,66.5C 374.573,64.9731 373.906,63.9731 372.5,63.5C 372.262,61.5956 371.262,60.2623 369.5,59.5C 369.262,57.5956 368.262,56.2623 366.5,55.5C 365.833,55.5 365.5,55.1667 365.5,54.5C 365.369,53.6236 365.702,52.9569 366.5,52.5C 369.5,54.6667 372.5,56.8333 375.5,59C 378.848,61.5014 381.182,64.6681 382.5,68.5 Z"/></g>
<g><path style="opacity:1" fill="#fefcfc" d="M 191.5,79.5 C 202.53,79.3703 206.696,84.7036 204,95.5C 202.324,100.178 199.491,104.011 195.5,107C 163.483,124.188 139.983,149.355 125,182.5C 116.965,207.38 119.632,231.047 133,253.5C 153.035,278.935 176.535,282.435 203.5,264C 211.397,256.781 217.73,248.447 222.5,239C 228.985,237.553 234.652,239.053 239.5,243.5C 240.022,244.607 240.355,245.774 240.5,247C 234.11,268.455 222.443,286.455 205.5,301C 171.369,322.742 139.536,319.909 110,292.5C 85.5757,257.438 80.909,219.772 96,179.5C 115.12,133.883 146.953,100.55 191.5,79.5 Z"/></g>
<g><path style="opacity:0.341" fill="#eb826c" d="M 366.5,81.5 C 367.75,81.5774 368.583,82.244 369,83.5C 370.145,86.4318 370.978,89.4318 371.5,92.5C 369.656,88.99 367.989,85.3233 366.5,81.5 Z"/></g>
<g><path style="opacity:0.118" fill="#e57d6a" d="M 385.5,93.5 C 383.243,92.4382 382.077,90.7715 382,88.5C 383.802,89.7893 384.969,91.4559 385.5,93.5 Z"/></g>
<g><path style="opacity:1" fill="#d6391d" d="M 69.5,168.5 C 69.0363,177.602 68.0363,186.602 66.5,195.5C 64.9323,198.203 63.9323,201.203 63.5,204.5C 63.8199,223.447 67.8199,241.447 75.5,258.5C 75.4021,260.553 76.0687,262.22 77.5,263.5C 77.4021,265.553 78.0687,267.22 79.5,268.5C 79.3284,269.492 79.6618,270.158 80.5,270.5C 80.3284,271.492 80.6618,272.158 81.5,272.5C 81.3284,273.492 81.6618,274.158 82.5,274.5C 82.3284,275.492 82.6618,276.158 83.5,276.5C 83.3284,277.492 83.6618,278.158 84.5,278.5C 84.3284,279.492 84.6618,280.158 85.5,280.5C 85.3284,281.492 85.6618,282.158 86.5,282.5C 87.1667,282.5 87.5,282.833 87.5,283.5C 88.1667,283.5 88.5,283.833 88.5,284.5C 87.1667,284.833 87.1667,285.167 88.5,285.5C 89.1667,285.5 89.5,285.833 89.5,286.5C 90.1667,286.5 90.5,286.833 90.5,287.5C 89.1667,287.833 89.1667,288.167 90.5,288.5C 91.3382,288.842 91.6716,289.508 91.5,290.5C 91.8333,291.833 92.1667,291.833 92.5,290.5C 96.7106,296.41 101.044,302.41 105.5,308.5C 104.167,308.833 104.167,309.167 105.5,309.5C 106.167,309.5 106.5,309.833 106.5,310.5C 106.427,312.027 107.094,313.027 108.5,313.5C 108.5,314.167 108.833,314.5 109.5,314.5C 110.167,314.5 110.5,314.833 110.5,315.5C 111.167,315.5 111.5,315.833 111.5,316.5C 112.167,316.5 112.5,316.833 112.5,317.5C 113.167,317.5 113.5,317.833 113.5,318.5C 114.833,321.833 117.167,324.167 120.5,325.5C 121.167,325.5 121.5,325.833 121.5,326.5C 122.167,326.5 122.5,326.833 122.5,327.5C 123.167,327.5 123.5,327.833 123.5,328.5C 123.833,329.833 124.167,329.833 124.5,328.5C 125.167,328.5 125.5,328.833 125.5,329.5C 126.167,329.5 126.5,329.833 126.5,330.5C 127.167,330.5 127.5,330.833 127.5,331.5C 127.5,332.167 127.833,332.5 128.5,332.5C 128.973,333.906 129.973,334.573 131.5,334.5C 139.153,338.85 146.486,343.516 153.5,348.5C 153.369,349.376 153.702,350.043 154.5,350.5C 158.521,352.179 162.521,353.846 166.5,355.5C 168.099,355.232 169.432,355.566 170.5,356.5C 174.43,356.635 177.764,357.968 180.5,360.5C 181.167,360.5 181.5,360.833 181.5,361.5C 181.5,362.167 181.833,362.5 182.5,362.5C 183.795,363.488 185.128,364.488 186.5,365.5C 186.833,365.5 187.167,365.5 187.5,365.5C 186.448,367.256 184.781,367.923 182.5,367.5C 179.687,367.452 177.021,366.785 174.5,365.5C 173.6,366.357 173.934,367.024 175.5,367.5C 175.539,368.583 175.873,369.583 176.5,370.5C 173.734,372.129 170.734,372.795 167.5,372.5C 148.73,366.291 132.397,356.291 118.5,342.5C 116.977,339.636 114.643,337.969 111.5,337.5C 111.167,337.5 110.833,337.5 110.5,337.5C 110.5,336.833 110.167,336.5 109.5,336.5C 107.535,333.988 104.868,332.655 101.5,332.5C 100.5,331.167 99.5,329.833 98.5,328.5C 100.855,327.042 100.522,325.708 97.5,324.5C 93.4884,319.128 89.4884,313.795 85.5,308.5C 85.6716,307.508 85.3382,306.842 84.5,306.5C 84.6716,305.508 84.3382,304.842 83.5,304.5C 83.6716,303.508 83.3382,302.842 82.5,302.5C 82.6716,301.508 82.3382,300.842 81.5,300.5C 81.6716,299.508 81.3382,298.842 80.5,298.5C 80.6716,297.508 80.3382,296.842 79.5,296.5C 79.6716,295.508 79.3382,294.842 78.5,294.5C 76.0078,288.182 73.0078,282.182 69.5,276.5C 68.5163,271.342 67.6829,271.342 67,276.5C 66.5831,275.244 65.7498,274.577 64.5,274.5C 61.8417,267.177 59.5084,259.844 57.5,252.5C 57.7678,250.901 57.4345,249.568 56.5,248.5C 56.7678,246.901 56.4345,245.568 55.5,244.5C 54.9933,240.14 54.3266,235.807 53.5,231.5C 53.0422,227.462 52.3755,223.462 51.5,219.5C 51.6309,218.624 51.2975,217.957 50.5,217.5C 49.6735,221.459 49.1735,225.459 49,229.5C 48.6174,228.944 48.1174,228.611 47.5,228.5C 48.6435,225.498 48.6435,222.498 47.5,219.5C 46.6816,222.107 46.1816,224.774 46,227.5C 45.3333,223.167 45.3333,218.833 46,214.5C 46.8966,218.414 47.3966,218.248 47.5,214C 47.4857,212.615 47.1524,211.449 46.5,210.5C 42.9381,182.26 47.1048,155.26 59,129.5C 59.956,128.421 60.7894,127.255 61.5,126C 68.8308,122.506 75.1642,117.673 80.5,111.5C 82.0879,113.113 83.0879,115.113 83.5,117.5C 71.6684,135.145 66.5018,154.478 68,175.5C 68.1862,172.964 68.6862,170.631 69.5,168.5 Z"/></g>
<g><path style="opacity:0.929" fill="#dd543a" d="M 97.5,103.5 C 94.6965,109.221 91.6965,114.888 88.5,120.5C 87.3901,122.2 86.0568,123.534 84.5,124.5C 87.6525,116.7 91.9859,109.7 97.5,103.5 Z"/></g>
<g><path style="opacity:0.625" fill="#e47059" d="M 418.5,134.5 C 417.883,134.389 417.383,134.056 417,133.5C 416.51,134.793 416.343,136.127 416.5,137.5C 415.662,137.842 415.328,138.508 415.5,139.5C 414.596,138.791 414.263,137.791 414.5,136.5C 415.833,135.5 415.833,134.5 414.5,133.5C 413.833,133.5 413.5,133.167 413.5,132.5C 414.161,131.282 414.828,129.949 415.5,128.5C 417.038,130.243 418.038,132.243 418.5,134.5 Z"/></g>
<g><path style="opacity:0.478" fill="#e6755f" d="M 400.5,141.5 C 403.679,147.374 405.679,153.707 406.5,160.5C 404.13,154.384 402.13,148.051 400.5,141.5 Z"/></g>
<g><path style="opacity:0.408" fill="#e87d68" d="M 71.5,159.5 C 71.7062,162.495 71.0395,165.162 69.5,167.5C 69.5651,164.572 70.2318,161.905 71.5,159.5 Z"/></g>
<g><path style="opacity:1" fill="#f4c3ba" d="M 250.5,134.5 C 250.572,144.699 249.905,154.699 248.5,164.5C 248.428,154.301 249.095,144.301 250.5,134.5 Z"/></g>
<g><path style="opacity:0.935" fill="#de573d" d="M 396.5,152.5 C 400.647,164.364 402.98,176.698 403.5,189.5C 400.727,177.377 398.393,165.044 396.5,152.5 Z"/></g>
<g><path style="opacity:0.475" fill="#eb8873" d="M 412.5,199.5 C 410.694,202.338 409.694,202.005 409.5,198.5C 410.75,198.423 411.583,197.756 412,196.5C 412.483,197.448 412.649,198.448 412.5,199.5 Z"/></g>
<g><path style="opacity:0.011" fill="#fdeeec" d="M 425.5,197.5 C 426.167,197.833 426.833,198.167 427.5,198.5C 427.663,200.857 427.497,203.19 427,205.5C 426.605,202.793 426.105,200.127 425.5,197.5 Z"/></g>
<g><path style="opacity:0.296" fill="#e98673" d="M 51.5,219.5 C 52.3755,223.462 53.0422,227.462 53.5,231.5C 53.1667,231.5 52.8333,231.5 52.5,231.5C 52.6567,230.127 52.49,228.793 52,227.5C 51.5357,228.094 51.369,228.761 51.5,229.5C 50.6677,226.341 50.6677,223.007 51.5,219.5 Z"/></g>
<g><path style="opacity:0.173" fill="#e67660" d="M 402.5,219.5 C 402.72,224.1 402.054,228.433 400.5,232.5C 400.438,227.924 401.105,223.591 402.5,219.5 Z"/></g>
<g><path style="opacity:0.933" fill="#e16851" d="M 430.5,219.5 C 430.149,226.271 429.149,232.938 427.5,239.5C 426.508,239.672 425.842,239.338 425.5,238.5C 426.335,234.66 426.335,230.994 425.5,227.5C 426.656,212.898 427.49,212.898 428,227.5C 428.943,224.749 429.776,222.083 430.5,219.5 Z"/></g>
<g><path style="opacity:1" fill="#da4a2e" d="M 51.5,219.5 C 50.6677,223.007 50.6677,226.341 51.5,229.5C 51.3284,230.492 51.6618,231.158 52.5,231.5C 52.7402,236.12 53.7402,240.453 55.5,244.5C 55.2322,246.099 55.5655,247.432 56.5,248.5C 56.2322,250.099 56.5655,251.432 57.5,252.5C 57.5,255.167 57.5,257.833 57.5,260.5C 56.325,260.719 55.325,260.386 54.5,259.5C 49.8018,249.707 47.4685,239.373 47.5,228.5C 48.1174,228.611 48.6174,228.944 49,229.5C 49.1735,225.459 49.6735,221.459 50.5,217.5C 51.2975,217.957 51.6309,218.624 51.5,219.5 Z"/></g>
<g><path style="opacity:0.227" fill="#e5735c" d="M 425.5,230.5 C 424.768,235.441 423.435,240.107 421.5,244.5C 422.17,240.149 423.004,235.816 424,231.5C 424.383,230.944 424.883,230.611 425.5,230.5 Z"/></g>
<g><path style="opacity:0.082" fill="#efa99d" d="M 425.5,238.5 C 425.842,239.338 426.508,239.672 427.5,239.5C 424.72,244.675 424.054,244.341 425.5,238.5 Z"/></g>
<g><path style="opacity:0.624" fill="#e6745d" d="M 397.5,246.5 C 396.739,250.784 395.405,254.784 393.5,258.5C 394.017,254.778 394.85,251.112 396,247.5C 396.383,246.944 396.883,246.611 397.5,246.5 Z"/></g>
<g><path style="opacity:0.357" fill="#e97c66" d="M 421.5,244.5 C 421.139,248.915 419.806,252.915 417.5,256.5C 418.261,252.216 419.595,248.216 421.5,244.5 Z"/></g>
<g><path style="opacity:0.365" fill="#e6735c" d="M 72.5,245.5 C 74.735,250.205 76.4017,255.205 77.5,260.5C 76.8333,259.833 76.1667,259.167 75.5,258.5C 74.3436,254.207 73.3436,249.874 72.5,245.5 Z"/></g>
<g><path style="opacity:1" fill="#db4d32" d="M 46.5,210.5 C 47.1524,211.449 47.4857,212.615 47.5,214C 47.3966,218.248 46.8966,218.414 46,214.5C 45.3333,218.833 45.3333,223.167 46,227.5C 46.1816,224.774 46.6816,222.107 47.5,219.5C 48.6435,222.498 48.6435,225.498 47.5,228.5C 46.1947,235.379 46.3614,242.379 48,249.5C 51.4061,260.719 55.4061,271.719 60,282.5C 60.4935,284.134 60.6602,285.801 60.5,287.5C 59.325,287.719 58.325,287.386 57.5,286.5C 55.4128,283.327 53.5795,279.994 52,276.5C 48.5107,263.543 45.1773,250.543 42,237.5C 39.5964,223.48 39.0964,209.48 40.5,195.5C 42.3299,201.162 44.1633,206.828 46,212.5C 46.4643,211.906 46.631,211.239 46.5,210.5 Z"/></g>
<g><path style="opacity:0.439" fill="#e26850" d="M 69.5,276.5 C 70.1667,279.5 70.8333,282.5 71.5,285.5C 70.8333,285.5 70.1667,285.5 69.5,285.5C 67.5593,281.952 65.8926,278.286 64.5,274.5C 65.7498,274.577 66.5831,275.244 67,276.5C 67.6829,271.342 68.5163,271.342 69.5,276.5 Z"/></g>
<g><path style="opacity:0.016" fill="#f7d7d2" d="M 69.5,285.5 C 70.1667,285.5 70.8333,285.5 71.5,285.5C 72.7733,286.077 72.7733,286.743 71.5,287.5C 70.4777,287.145 69.811,286.478 69.5,285.5 Z"/></g>
<g><path style="opacity:0.851" fill="#e1634a" d="M 78.5,294.5 C 78.3284,295.492 78.6618,296.158 79.5,296.5C 79.3284,297.492 79.6618,298.158 80.5,298.5C 80.3284,299.492 80.6618,300.158 81.5,300.5C 81.3284,301.492 81.6618,302.158 82.5,302.5C 82.3284,303.492 82.6618,304.158 83.5,304.5C 83.3284,305.492 83.6618,306.158 84.5,306.5C 84.3284,307.492 84.6618,308.158 85.5,308.5C 85.2942,310.549 84.4609,310.883 83,309.5C 79.3573,304.545 76.524,299.212 74.5,293.5C 75.9587,293.433 77.2921,293.766 78.5,294.5 Z"/></g>
<g><path style="opacity:1" fill="#dc5136" d="M 63.5,284.5 C 64.3764,284.369 65.0431,284.702 65.5,285.5C 70.0966,295.27 74.93,304.936 80,314.5C 80.8077,316.579 80.641,318.579 79.5,320.5C 74.8006,312.963 70.3006,305.297 66,297.5C 64.3693,293.312 63.5359,288.979 63.5,284.5 Z"/></g>
<g><path style="opacity:1" fill="#d8452a" d="M 372.5,300.5 C 374.722,300.559 375.722,301.725 375.5,304C 375.444,306.626 374.277,308.46 372,309.5C 371.5,309.167 371,308.833 370.5,308.5C 372.055,306.057 372.722,303.39 372.5,300.5 Z"/></g>
<g><path style="opacity:0.842" fill="#fef8f7" d="M 391.5,308.5 C 391.251,316.082 389.084,323.082 385,329.5C 380.463,334.475 374.963,335.809 368.5,333.5C 375.805,324.861 383.471,316.527 391.5,308.5 Z"/></g>
<g><path style="opacity:0.047" fill="#f4bbb1" d="M 106.5,310.5 C 107.833,311.167 108.833,312.167 109.5,313.5C 109.167,313.5 108.833,313.5 108.5,313.5C 107.094,313.027 106.427,312.027 106.5,310.5 Z"/></g>
<g><path style="opacity:0.082" fill="#ed9c8e" d="M 97.5,324.5 C 100.522,325.708 100.855,327.042 98.5,328.5C 96.3796,327.597 96.0462,326.263 97.5,324.5 Z"/></g>
<g><path style="opacity:0.063" fill="#ec9585" d="M 128.5,331.5 C 129.833,332.167 130.833,333.167 131.5,334.5C 129.973,334.573 128.973,333.906 128.5,332.5C 128.5,332.167 128.5,331.833 128.5,331.5 Z"/></g>
<g><path style="opacity:0.906" fill="#e2644a" d="M 101.5,332.5 C 104.868,332.655 107.535,333.988 109.5,336.5C 110.167,336.5 110.5,336.833 110.5,337.5C 110.833,338.833 111.167,338.833 111.5,337.5C 114.643,337.969 116.977,339.636 118.5,342.5C 117.624,342.369 116.957,342.702 116.5,343.5C 117.973,345.395 119.64,347.061 121.5,348.5C 119.813,349.568 118.146,349.401 116.5,348C 110.936,343.366 105.936,338.199 101.5,332.5 Z"/></g>
<g><path style="opacity:1" fill="#dd563c" d="M 340.5,333.5 C 341.167,333.5 341.833,333.5 342.5,333.5C 341.375,335.129 340.041,336.629 338.5,338C 340.285,339.163 342.285,339.83 344.5,340C 342.211,342.111 339.545,343.611 336.5,344.5C 336.167,343.167 335.833,343.167 335.5,344.5C 334.789,346.201 333.455,347.201 331.5,347.5C 331.167,346.167 330.833,346.167 330.5,347.5C 329.205,348.488 327.872,349.488 326.5,350.5C 326.167,349.167 325.833,349.167 325.5,350.5C 323.672,352.161 321.672,353.828 319.5,355.5C 318.158,353.995 316.492,353.328 314.5,353.5C 323.664,348.346 331.997,342.013 339.5,334.5C 340.167,334.5 340.5,334.167 340.5,333.5 Z"/></g>
<g><path style="opacity:0.357" fill="#e3735e" d="M 153.5,348.5 C 158.32,350.074 162.653,352.407 166.5,355.5C 162.521,353.846 158.521,352.179 154.5,350.5C 153.702,350.043 153.369,349.376 153.5,348.5 Z"/></g>
<g><path style="opacity:0.847" fill="#e46e57" d="M 128.5,360.5 C 125.306,359.652 124.639,360.985 126.5,364.5C 123.834,362.828 123.167,360.494 124.5,357.5C 126.261,358.035 127.594,359.035 128.5,360.5 Z"/></g>
<g><path style="opacity:0.762" fill="#e26851" d="M 312.5,353.5 C 312.082,354.222 311.416,354.722 310.5,355C 311.793,355.49 313.127,355.657 314.5,355.5C 314.737,356.791 314.404,357.791 313.5,358.5C 313.631,357.624 313.298,356.957 312.5,356.5C 307.674,358.746 303.008,361.246 298.5,364C 295.854,364.497 293.187,364.664 290.5,364.5C 290.5,363.833 290.5,363.167 290.5,362.5C 298.36,360.563 305.693,357.563 312.5,353.5 Z"/></g>
<g><path style="opacity:0.322" fill="#f0aca0" d="M 182.5,361.5 C 184.216,361.629 185.883,361.962 187.5,362.5C 187.5,363.167 187.5,363.833 187.5,364.5C 186.833,364.5 186.5,364.833 186.5,365.5C 185.128,364.488 183.795,363.488 182.5,362.5C 182.5,362.167 182.5,361.833 182.5,361.5 Z"/></g>
<g><path style="opacity:0.635" fill="#e36c55" d="M 294.5,358.5 C 288.901,361.407 282.901,363.407 276.5,364.5C 276.611,363.883 276.944,363.383 277.5,363C 283.213,361.594 288.88,360.094 294.5,358.5 Z"/></g>
<g><path style="opacity:0.624" fill="#e36a52" d="M 137.5,360.5 C 142.621,362.055 146.621,365.055 149.5,369.5C 145.019,369.34 141.186,367.34 138,363.5C 137.517,362.552 137.351,361.552 137.5,360.5 Z"/></g>
<g><path style="opacity:0.89" fill="#dd553b" d="M 128.5,360.5 C 132.542,361.851 135.875,364.185 138.5,367.5C 137.675,368.386 136.675,368.719 135.5,368.5C 135.5,367.833 135.167,367.5 134.5,367.5C 133.348,366.375 132.348,366.375 131.5,367.5C 129.326,367.25 127.659,366.25 126.5,364.5C 124.639,360.985 125.306,359.652 128.5,360.5 Z"/></g>
<g><path style="opacity:0.004" fill="#f4c5bd" d="M 290.5,362.5 C 290.5,363.167 290.5,363.833 290.5,364.5C 289.923,365.773 289.257,365.773 288.5,364.5C 288.855,363.478 289.522,362.811 290.5,362.5 Z"/></g>
<g><path style="opacity:0.825" fill="#df5c43" d="M 187.5,362.5 C 191.586,362.884 195.586,363.717 199.5,365C 198.833,365.333 198.167,365.667 197.5,366C 204.839,366.417 212.173,366.917 219.5,367.5C 221.952,367.539 223.952,368.206 225.5,369.5C 212.566,369.569 199.899,367.903 187.5,364.5C 187.5,363.833 187.5,363.167 187.5,362.5 Z"/></g>
<g><path style="opacity:0.993" fill="#e3664c" d="M 266.5,366.5 C 259.411,368.304 252.077,369.304 244.5,369.5C 245.334,368.252 246.667,367.585 248.5,367.5C 254.474,366.692 260.474,366.359 266.5,366.5 Z"/></g>
<g><path style="opacity:0.145" fill="#eea092" d="M 187.5,365.5 C 188.643,365.908 189.643,366.575 190.5,367.5C 187.691,368.8 185.024,368.8 182.5,367.5C 184.781,367.923 186.448,367.256 187.5,365.5 Z"/></g>
<g><path style="opacity:0.027" fill="#fae7e3" d="M 134.5,367.5 C 135.167,367.5 135.5,367.833 135.5,368.5C 133.872,369.853 132.538,369.519 131.5,367.5C 132.348,366.375 133.348,366.375 134.5,367.5 Z"/></g>
<g><path style="opacity:0.992" fill="#e06046" d="M 175.5,367.5 C 180.731,369.802 186.065,371.469 191.5,372.5C 188.813,372.336 186.146,372.503 183.5,373C 185.431,373.902 187.097,375.069 188.5,376.5C 184.32,375.274 180.154,373.94 176,372.5C 173.017,373.732 170.184,373.732 167.5,372.5C 170.734,372.795 173.734,372.129 176.5,370.5C 175.873,369.583 175.539,368.583 175.5,367.5 Z"/></g>
<g><path style="opacity:0.98" fill="#df5c43" d="M 247.5,371.5 C 244.557,374.368 240.89,376.035 236.5,376.5C 237.263,375.732 238.263,375.232 239.5,375C 237.579,373.759 237.246,372.259 238.5,370.5C 241.421,371.407 244.421,371.74 247.5,371.5 Z"/></g>
<g><path style="opacity:0.788" fill="#e16850" d="M 207.5,380.5 C 214.147,380.331 220.48,381.331 226.5,383.5C 219.936,383.136 213.603,382.136 207.5,380.5 Z"/></g>
<g><path style="opacity:0.949" fill="#e26850" d="M 153.5,378.5 C 159.921,379.179 165.588,381.512 170.5,385.5C 163.571,386.201 157.905,383.868 153.5,378.5 Z"/></g>
<g><path style="opacity:1" fill="#d73b1f" d="M 77.5,401.5 C 77.0083,412.176 76.3416,422.842 75.5,433.5C 75.9546,442.909 76.9546,452.242 78.5,461.5C 83.8408,455.468 89.1742,449.468 94.5,443.5C 96.7488,442.92 98.4154,441.587 99.5,439.5C 104.15,435.596 108.984,435.596 114,439.5C 119.608,451.209 122.275,463.542 122,476.5C 118.145,480.646 113.812,481.646 109,479.5C 106.668,471.178 104.335,462.845 102,454.5C 97.135,453.615 93.135,455.281 90,459.5C 85.8333,465 81.6667,470.5 77.5,476C 75.049,478.84 72.549,479.006 70,476.5C 64.3122,458.468 61.8122,439.968 62.5,421C 62.6667,414.5 62.8333,408 63,401.5C 63.2494,398.823 64.2494,396.49 66,394.5C 66.8159,393.177 67.9826,392.511 69.5,392.5C 72.0961,391.735 74.7628,391.401 77.5,391.5C 77.5,394.833 77.5,398.167 77.5,401.5 Z"/></g>
<g><path style="opacity:1" fill="#d63a1e" d="M -0.5,465.5 C -0.5,457.833 -0.5,450.167 -0.5,442.5C 5.95819,419.53 19.9582,402.696 41.5,392C 43.8333,391.333 46.1667,391.333 48.5,392C 50.0171,395.693 49.6838,399.193 47.5,402.5C 36.566,409.266 27.3994,417.933 20,428.5C 13.0667,440.306 12.7334,452.306 19,464.5C 29.5492,476.156 40.5492,476.489 52,465.5C 53.0395,463.254 54.2062,461.087 55.5,459C 57.8333,458.333 60.1667,458.333 62.5,459C 63.9436,460.126 64.6102,461.626 64.5,463.5C 57.5413,486.972 42.2079,495.805 18.5,490C 13.4199,487.549 9.25321,484.049 6,479.5C 3.51112,474.863 1.34445,470.196 -0.5,465.5 Z"/></g>
<g><path style="opacity:0.58" fill="#e46e57" d="M 77.5,401.5 C 77.5,398.167 77.5,394.833 77.5,391.5C 74.7628,391.401 72.0961,391.735 69.5,392.5C 72.3417,389.098 75.5083,388.765 79,391.5C 78.9852,394.963 78.4852,398.296 77.5,401.5 Z"/></g>
<g><path style="opacity:1" fill="#d84328" d="M 440.5,397.5 C 443.41,398.973 444.077,401.14 442.5,404C 443.416,404.374 444.25,404.874 445,405.5C 449.635,403.466 454.468,402.632 459.5,403C 462.58,404.711 463.746,407.211 463,410.5C 461.412,413.174 460.245,416.008 459.5,419C 462.1,422.526 461.766,425.859 458.5,429C 460.527,430.396 460.86,432.062 459.5,434C 457.5,434.667 455.5,435.333 453.5,436C 458.237,436.699 462.904,437.532 467.5,438.5C 467.5,439.5 467.5,440.5 467.5,441.5C 466.167,441.833 464.833,442.167 463.5,442.5C 460.482,442.704 457.482,443.037 454.5,443.5C 446.197,441.182 438.53,437.515 431.5,432.5C 429.116,434.885 426.45,436.885 423.5,438.5C 422.914,438.291 422.414,437.957 422,437.5C 424.008,433.426 426.175,429.259 428.5,425C 426.487,424.32 425.154,422.987 424.5,421C 427.298,418.763 430.298,416.763 433.5,415C 432.619,414.292 431.953,413.458 431.5,412.5C 430.167,410.833 430.167,409.167 431.5,407.5C 431.833,407.5 432.167,407.5 432.5,407.5C 433.5,407.5 434.5,407.5 435.5,407.5C 435.5,404.167 435.5,400.833 435.5,397.5C 437.167,397.5 438.833,397.5 440.5,397.5 Z M 445.5,416.5 C 445.785,412.962 444.118,411.129 440.5,411C 442.081,410.293 443.581,409.46 445,408.5C 447.969,411.152 448.135,413.819 445.5,416.5 Z M 454.5,414.5 C 453.508,414.672 452.842,414.338 452.5,413.5C 455.23,407.971 455.896,408.304 454.5,414.5 Z M 445.5,416.5 C 445.461,417.583 445.127,418.583 444.5,419.5C 447.008,420.588 449.008,419.922 450.5,417.5C 451.167,417.833 451.833,418.167 452.5,418.5C 450.636,420.014 448.636,421.347 446.5,422.5C 445.391,422.557 444.391,422.89 443.5,423.5C 439.231,419.963 439.897,417.63 445.5,416.5 Z M 433.5,422.5 C 434.622,424.288 434.789,426.288 434,428.5C 433.5,426.667 432.333,425.5 430.5,425C 431.942,424.623 432.942,423.79 433.5,422.5 Z M 451.5,425.5 C 455.193,426.247 455.193,427.58 451.5,429.5C 450.374,428.192 450.374,426.858 451.5,425.5 Z M 442.5,427.5 C 443.167,427.833 443.833,428.167 444.5,428.5C 444.657,429.873 444.49,431.207 444,432.5C 442.989,431.663 441.822,431.33 440.5,431.5C 440.157,429.517 440.824,428.183 442.5,427.5 Z"/></g>
<g><path style="opacity:1" fill="#d73b1f" d="M 261.5,416.5 C 258.657,421.367 256.991,426.7 256.5,432.5C 255.272,438.807 254.105,445.14 253,451.5C 252.333,454.167 252.333,456.833 253,459.5C 256.508,457.413 259.842,455.08 263,452.5C 264.991,449.063 266.157,445.563 266.5,442C 270.798,438.36 275.298,437.86 280,440.5C 281.02,444.71 280.02,448.377 277,451.5C 273.115,455.52 268.948,459.186 264.5,462.5C 270.458,471.458 277.791,479.125 286.5,485.5C 288.04,489.941 287.04,493.774 283.5,497C 281.029,497.706 278.695,497.373 276.5,496C 272.367,492.869 268.534,489.369 265,485.5C 259.882,480.227 255.382,474.561 251.5,468.5C 251.44,467.957 251.107,467.624 250.5,467.5C 248.776,472.656 247.776,477.989 247.5,483.5C 245.232,486.7 242.232,487.7 238.5,486.5C 238.771,457.873 243.271,429.873 252,402.5C 257.175,397.028 263.009,395.695 269.5,398.5C 266.783,404.59 264.116,410.59 261.5,416.5 Z"/></g>
<g><path style="opacity:0.239" fill="#e57965" d="M 440.5,397.5 C 438.833,397.5 437.167,397.5 435.5,397.5C 435.5,400.833 435.5,404.167 435.5,407.5C 434.5,407.5 433.5,407.5 432.5,407.5C 434.298,404.169 434.964,400.502 434.5,396.5C 436.735,396.205 438.735,396.539 440.5,397.5 Z"/></g>
<g><path style="opacity:1" fill="#da462a" d="M 301.5,405.5 C 303.595,405.76 304.928,406.926 305.5,409C 303.752,417 298.752,420.166 290.5,418.5C 289.55,410.124 293.217,405.791 301.5,405.5 Z"/></g>
<g><path style="opacity:0.694" fill="#ea816c" d="M 431.5,407.5 C 430.167,409.167 430.167,410.833 431.5,412.5C 427.5,410.833 427.5,409.167 431.5,407.5 Z"/></g>
<g><path style="opacity:0.224" fill="#e8816e" d="M 452.5,413.5 C 452.842,414.338 453.508,414.672 454.5,414.5C 453.194,415.467 452.527,416.801 452.5,418.5C 451.833,418.167 451.167,417.833 450.5,417.5C 450.66,415.847 451.326,414.514 452.5,413.5 Z"/></g>
<g><path style="opacity:0.627" fill="#ec8a76" d="M 446.5,422.5 C 445.27,424.297 444.604,426.297 444.5,428.5C 443.833,428.167 443.167,427.833 442.5,427.5C 443.234,426.292 443.567,424.959 443.5,423.5C 444.391,422.89 445.391,422.557 446.5,422.5 Z"/></g>
<g><path style="opacity:1" fill="#d73d21" d="M 404.5,442.5 C 400.5,442.5 396.5,442.5 392.5,442.5C 378.922,441.02 372.755,447.02 374,460.5C 378.194,464.135 382.694,464.302 387.5,461C 392.688,457.312 397.022,452.812 400.5,447.5C 401.689,446.571 403.022,446.238 404.5,446.5C 407.31,456.984 408.143,467.651 407,478.5C 405.596,488.008 400.762,495.008 392.5,499.5C 387.5,499.5 382.5,499.5 377.5,499.5C 376.232,497.33 376.232,495.163 377.5,493C 393.452,491.981 399.952,483.481 397,467.5C 396.751,466.376 396.251,465.376 395.5,464.5C 390.12,467.182 384.454,468.849 378.5,469.5C 370.822,469.578 365.988,465.911 364,458.5C 363.132,436.867 373.632,426.2 395.5,426.5C 399.7,427.137 403.866,427.804 408,428.5C 408.582,433.59 407.415,438.257 404.5,442.5 Z"/></g>
<g><path style="opacity:0.38" fill="#e26951" d="M 261.5,416.5 C 260.204,422.05 258.537,427.383 256.5,432.5C 256.991,426.7 258.657,421.367 261.5,416.5 Z"/></g>
<g><path style="opacity:1" fill="#d73d21" d="M 221.5,476.5 C 217.633,476.758 213.966,476.092 210.5,474.5C 206.83,470.33 202.997,466.33 199,462.5C 193.845,466.987 188.678,471.487 183.5,476C 181.5,476.667 179.5,476.667 177.5,476C 170.03,467.914 165.863,458.414 165,447.5C 168.328,443.457 172.495,441.29 177.5,441C 180.471,447.569 183.637,454.069 187,460.5C 191.467,457.035 195.633,453.202 199.5,449C 201.37,447.634 203.37,446.467 205.5,445.5C 210.823,450.991 215.989,456.658 221,462.5C 223.167,460.17 224.834,457.503 226,454.5C 228.069,448.794 230.235,443.128 232.5,437.5C 235.868,434.836 238.201,435.669 239.5,440C 235.716,453.399 229.716,465.566 221.5,476.5 Z"/></g>
<g><path style="opacity:1" fill="#d73d21" d="M 295.5,437.5 C 296.209,438.404 297.209,438.737 298.5,438.5C 298.5,441.5 298.5,444.5 298.5,447.5C 298.276,451.204 298.11,454.871 298,458.5C 305.446,451.054 312.946,443.554 320.5,436C 322.441,435.257 324.274,435.424 326,436.5C 326.998,441.456 327.831,446.456 328.5,451.5C 334.182,446.327 340.515,442.16 347.5,439C 353.721,437.542 357.221,440.042 358,446.5C 360.044,454.734 360.71,463.067 360,471.5C 355.98,475.1 351.646,475.766 347,473.5C 346.082,466.488 345.082,459.488 344,452.5C 341.353,451.536 338.853,452.036 336.5,454C 331.477,460.021 326.144,465.688 320.5,471C 317.472,472.14 315.305,471.306 314,468.5C 313.828,463.798 313.328,459.132 312.5,454.5C 307.316,459.518 301.983,464.351 296.5,469C 292.021,472.462 287.354,472.962 282.5,470.5C 281.937,469.061 281.603,467.561 281.5,466C 282.721,459.177 283.887,452.344 285,445.5C 285.48,438.852 288.98,436.185 295.5,437.5 Z"/></g>
<g><path style="opacity:0.592" fill="#e77862" d="M 295.5,437.5 C 298.233,437.196 299.899,438.363 300.5,441C 300.01,443.346 299.343,445.513 298.5,447.5C 298.5,444.5 298.5,441.5 298.5,438.5C 297.209,438.737 296.209,438.404 295.5,437.5 Z"/></g>
<g><path style="opacity:0.443" fill="#e67761" d="M 99.5,439.5 C 98.4154,441.587 96.7488,442.92 94.5,443.5C 95.5846,441.413 97.2512,440.08 99.5,439.5 Z"/></g>
<g><path style="opacity:1" fill="#d73c20" d="M 138.5,440.5 C 161.37,440.891 168.87,451.891 161,473.5C 152.698,483.152 142.865,484.985 131.5,479C 120.299,468.313 119.632,456.979 129.5,445C 132.437,443.199 135.437,441.699 138.5,440.5 Z M 142.5,454.5 C 153.503,454.555 157.003,459.888 153,470.5C 147.719,474.699 142.719,474.366 138,469.5C 135.781,463.328 137.281,458.328 142.5,454.5 Z"/></g>
<g><path style="opacity:0.922" fill="#e36951" d="M 392.5,442.5 C 396.5,442.5 400.5,442.5 404.5,442.5C 403.688,443.993 402.355,444.66 400.5,444.5C 397.614,444.196 394.948,443.529 392.5,442.5 Z"/></g>
<g><path style="opacity:0.163" fill="#ea8773" d="M 463.5,442.5 C 460.627,444.482 457.627,444.815 454.5,443.5C 457.482,443.037 460.482,442.704 463.5,442.5 Z"/></g>
<g><path style="opacity:1" fill="#d9452a" d="M 455.5,482.5 C 454.275,483.152 453.608,484.319 453.5,486C 453.514,487.385 453.848,488.551 454.5,489.5C 454.5,490.167 454.5,490.833 454.5,491.5C 452.926,493.102 452.259,495.102 452.5,497.5C 451.5,497.5 450.5,497.5 449.5,497.5C 449.766,493.429 449.433,489.429 448.5,485.5C 446.257,484.526 443.924,484.192 441.5,484.5C 439.896,485.287 439.229,486.62 439.5,488.5C 437.116,488.443 434.782,488.777 432.5,489.5C 430.575,489.41 429.408,488.41 429,486.5C 428.292,487.381 427.458,488.047 426.5,488.5C 424.821,488.715 423.821,488.048 423.5,486.5C 424.237,484.695 425.237,483.029 426.5,481.5C 420.946,477.824 421.279,475.158 427.5,473.5C 429.085,472.998 429.585,471.998 429,470.5C 427.224,471.536 425.391,471.536 423.5,470.5C 422.374,469.142 422.374,467.808 423.5,466.5C 427.064,465.891 429.731,464.058 431.5,461C 429.155,459.276 428.655,457.443 430,455.5C 436.264,451.811 440.93,453.144 444,459.5C 444.399,459.272 444.565,458.938 444.5,458.5C 445.829,461.695 447.495,462.028 449.5,459.5C 451.531,457.513 453.198,454.68 454.5,451C 457.31,450.621 459.31,451.788 460.5,454.5C 459.205,456.81 457.871,459.143 456.5,461.5C 457.415,462.328 458.081,463.328 458.5,464.5C 457.64,466.272 456.307,467.605 454.5,468.5C 456.012,469.249 457.012,470.416 457.5,472C 455.237,473.243 454.403,475.076 455,477.5C 460.565,475.116 463.565,476.783 464,482.5C 463.275,483.059 462.442,483.392 461.5,483.5C 459.547,482.844 457.547,482.511 455.5,482.5 Z M 443.5,464.5 C 442.82,467.611 444.154,469.778 447.5,471C 440.864,473.385 440.864,475.719 447.5,478C 445.919,478.707 444.419,479.54 443,480.5C 443.229,477.19 441.729,475.356 438.5,475C 440.307,471.385 441.973,467.885 443.5,464.5 Z M 435.5,481.5 C 435.27,483.983 434.603,484.483 433.5,483C 433.836,481.97 434.503,481.47 435.5,481.5 Z"/></g>
<g><path style="opacity:1" fill="#d84227" d="M 449.5,459.5 C 447.495,462.028 445.829,461.695 444.5,458.5C 444.383,456.516 445.05,454.85 446.5,453.5C 448.553,454.939 449.553,456.939 449.5,459.5 Z"/></g>
<g><path style="opacity:0.108" fill="#ee9c8d" d="M 423.5,470.5 C 425.391,471.536 427.224,471.536 429,470.5C 429.585,471.998 429.085,472.998 427.5,473.5C 425.924,472.857 424.59,471.857 423.5,470.5 Z"/></g>
<g><path style="opacity:0.2" fill="#e4735d" d="M 251.5,468.5 C 250.167,473.5 248.833,478.5 247.5,483.5C 247.776,477.989 248.776,472.656 250.5,467.5C 251.107,467.624 251.44,467.957 251.5,468.5 Z"/></g>
<g><path style="opacity:0.745" fill="#e57159" d="M 210.5,474.5 C 213.966,476.092 217.633,476.758 221.5,476.5C 217.369,479.225 213.702,478.558 210.5,474.5 Z"/></g>
<g><path style="opacity:0.055" fill="#efada2" d="M 455.5,482.5 C 454.631,484.717 454.298,487.05 454.5,489.5C 453.848,488.551 453.514,487.385 453.5,486C 453.608,484.319 454.275,483.152 455.5,482.5 Z"/></g>
<g><path style="opacity:0.706" fill="#e77158" d="M 441.5,484.5 C 443.924,484.192 446.257,484.526 448.5,485.5C 449.433,489.429 449.766,493.429 449.5,497.5C 450.5,497.5 451.5,497.5 452.5,497.5C 452.259,495.102 452.926,493.102 454.5,491.5C 454.662,494.691 453.662,497.358 451.5,499.5C 450.833,499.5 450.167,499.5 449.5,499.5C 448.019,494.988 447.352,490.322 447.5,485.5C 446.178,485.33 445.011,485.663 444,486.5C 443.005,485.934 442.172,485.267 441.5,484.5 Z"/></g>
<g><path style="opacity:0.184" fill="#ec9686" d="M 423.5,486.5 C 423.821,488.048 424.821,488.715 426.5,488.5C 424.965,489.788 423.299,489.788 421.5,488.5C 421.855,487.478 422.522,486.811 423.5,486.5 Z"/></g>
</svg>
